<?xml version="1.0" encoding="UTF-8" standalone="no"?>
<!DOCTYPE svg PUBLIC "-//W3C//DTD SVG 1.1//EN"
 "http://www.w3.org/Graphics/SVG/1.1/DTD/svg11.dtd">
<!-- Generated by graphviz version 14.0.4 (0)
 -->
<!-- Title: modules Pages: 1 -->
<svg width="800pt" height="266pt"
 viewBox="0.00 0.00 800.00 266.00" xmlns="http://www.w3.org/2000/svg" xmlns:xlink="http://www.w3.org/1999/xlink">
<g id="graph0" class="graph" transform="scale(1 1) rotate(0) translate(4 262)">
<title>modules</title>
<g id="clust1" class="cluster">
<title>cluster_navigation</title>
<polygon fill="#aa96da" fill-opacity="0.062745" stroke="#aa96da" stroke-dasharray="5,2" points="440.95,-8 440.95,-250 622.85,-250 622.85,-8 440.95,-8"/>
<text xml:space="preserve" text-anchor="middle" x="580.35" y="-232.7" font-family="fixed" font-size="14.00" fill="#b5e4f4">navigation</text>
</g>
<g id="clust2" class="cluster">
<title>cluster_robot</title>
<polygon fill="#64b5f6" fill-opacity="0.062745" stroke="#64b5f6" stroke-dasharray="5,2" points="106.15,-32 106.15,-220 226.55,-220 226.55,-32 106.15,-32"/>
<text xml:space="preserve" text-anchor="middle" x="200.93" y="-202.7" font-family="fixed" font-size="14.00" fill="#b5e4f4">robot</text>
</g>
<!-- AstarPlanner -->
<g id="node1" class="node">
<title>AstarPlanner</title>
<polygon fill="#0b0f0f" stroke="#5c9ff0" points="576.23,-160 487.57,-160 487.57,-124 576.23,-124 576.23,-160"/>
<text xml:space="preserve" text-anchor="middle" x="531.9" y="-139.22" font-family="fixed" font-size="12.00" fill="#b5e4f4">AstarPlanner</text>
</g>
<!-- chan_path_Path -->
<g id="node14" class="node">
<title>chan_path_Path</title>
<polygon fill="#f06292" fill-opacity="0.207843" stroke="#f06292" points="747.55,-193.72 691.72,-193.72 691.72,-172.28 751.12,-172.28 751.12,-190.15 747.55,-193.72"/>
<polyline fill="none" stroke="#f06292" points="747.55,-193.72 747.55,-190.15"/>
<polyline fill="none" stroke="#f06292" points="751.12,-190.15 747.55,-190.15"/>
<text xml:space="preserve" text-anchor="middle" x="721.42" y="-180.62" font-family="fixed" font-size="10.00" fill="#b5e4f4">path:Path</text>
</g>
<!-- AstarPlanner&#45;&gt;chan_path_Path -->
<g id="edge15" class="edge">
<title>AstarPlanner&#45;&gt;chan_path_Path</title>
<path fill="none" stroke="#f06292" d="M576.39,-151.51C611.77,-159.24 660.71,-169.94 691.46,-176.67"/>
</g>
<!-- BehaviorTreeNavigator -->
<g id="node2" class="node">
<title>BehaviorTreeNavigator</title>
<polygon fill="#0b0f0f" stroke="#5c9ff0" points="604.35,-106 459.45,-106 459.45,-70 604.35,-70 604.35,-106"/>
<text xml:space="preserve" text-anchor="middle" x="531.9" y="-85.22" font-family="fixed" font-size="12.00" fill="#b5e4f4">BehaviorTreeNavigator</text>
</g>
<!-- chan_goal_reached_Bool -->
<g id="node10" class="node">
<title>chan_goal_reached_Bool</title>
<polygon fill="#dce775" fill-opacity="0.207843" stroke="#dce775" points="767.8,-94.72 671.47,-94.72 671.47,-73.28 771.38,-73.28 771.38,-91.15 767.8,-94.72"/>
<polyline fill="none" stroke="#dce775" points="767.8,-94.72 767.8,-91.15"/>
<polyline fill="none" stroke="#dce775" points="771.38,-91.15 767.8,-91.15"/>
<text xml:space="preserve" text-anchor="middle" x="721.42" y="-81.62" font-family="fixed" font-size="10.00" fill="#b5e4f4">goal_reached:Bool</text>
</g>
<!-- BehaviorTreeNavigator&#45;&gt;chan_goal_reached_Bool -->
<g id="edge7" class="edge">
<title>BehaviorTreeNavigator&#45;&gt;chan_goal_reached_Bool</title>
<path fill="none" stroke="#dce775" d="M604.6,-86.47C626.83,-86 650.81,-85.48 671.16,-85.05"/>
</g>
<!-- chan_target_PoseStamped -->
<g id="node15" class="node">
<title>chan_target_PoseStamped</title>
<polygon fill="#ff6b6b" fill-opacity="0.207843" stroke="#ff6b6b" points="772.67,-142.72 666.6,-142.72 666.6,-121.28 776.25,-121.28 776.25,-139.15 772.67,-142.72"/>
<polyline fill="none" stroke="#ff6b6b" points="772.67,-142.72 772.67,-139.15"/>
<polyline fill="none" stroke="#ff6b6b" points="776.25,-139.15 772.67,-139.15"/>
<text xml:space="preserve" text-anchor="middle" x="721.42" y="-129.62" font-family="fixed" font-size="10.00" fill="#b5e4f4">target:PoseStamped</text>
</g>
<!-- BehaviorTreeNavigator&#45;&gt;chan_target_PoseStamped -->
<g id="edge17" class="edge">
<title>BehaviorTreeNavigator&#45;&gt;chan_target_PoseStamped</title>
<path fill="none" stroke="#ff6b6b" d="M604.6,-104.82C627.45,-110.18 652.15,-115.98 672.85,-120.84"/>
</g>
<!-- HolonomicLocalPlanner -->
<g id="node3" class="node">
<title>HolonomicLocalPlanner</title>
<polygon fill="#0b0f0f" stroke="#5c9ff0" points="606.98,-214 456.82,-214 456.82,-178 606.98,-178 606.98,-214"/>
<text xml:space="preserve" text-anchor="middle" x="531.9" y="-193.22" font-family="fixed" font-size="12.00" fill="#b5e4f4">HolonomicLocalPlanner</text>
</g>
<!-- chan_cmd_vel_Twist -->
<g id="node8" class="node">
<title>chan_cmd_vel_Twist</title>
<polygon fill="#4db6ac" fill-opacity="0.207843" stroke="#4db6ac" points="74.58,-212.72 0,-212.72 0,-191.28 78.15,-191.28 78.15,-209.15 74.58,-212.72"/>
<polyline fill="none" stroke="#4db6ac" points="74.58,-212.72 74.58,-209.15"/>
<polyline fill="none" stroke="#4db6ac" points="78.15,-209.15 74.58,-209.15"/>
<text xml:space="preserve" text-anchor="middle" x="39.08" y="-199.62" font-family="fixed" font-size="10.00" fill="#b5e4f4">cmd_vel:Twist</text>
</g>
<!-- HolonomicLocalPlanner&#45;&gt;chan_cmd_vel_Twist -->
<g id="edge1" class="edge">
<title>HolonomicLocalPlanner&#45;&gt;chan_cmd_vel_Twist</title>
<path fill="none" stroke="#4db6ac" d="M456.37,-211.03C371.18,-225.87 227.79,-243.72 106.15,-224 92.9,-221.85 78.72,-217.43 66.91,-213.11"/>
</g>
<!-- WavefrontFrontierExplorer -->
<g id="node4" class="node">
<title>WavefrontFrontierExplorer</title>
<polygon fill="#0b0f0f" stroke="#5c9ff0" points="614.85,-52 448.95,-52 448.95,-16 614.85,-16 614.85,-52"/>
<text xml:space="preserve" text-anchor="middle" x="531.9" y="-31.23" font-family="fixed" font-size="12.00" fill="#b5e4f4">WavefrontFrontierExplorer</text>
</g>
<!-- chan_goal_request_PoseStamped -->
<g id="node11" class="node">
<title>chan_goal_request_PoseStamped</title>
<polygon fill="#fff59d" fill-opacity="0.207843" stroke="#fff59d" points="788.42,-51.73 650.85,-51.73 650.85,-30.27 792,-30.27 792,-48.15 788.42,-51.73"/>
<polyline fill="none" stroke="#fff59d" points="788.42,-51.73 788.42,-48.15"/>
<polyline fill="none" stroke="#fff59d" points="792,-48.15 788.42,-48.15"/>
<text xml:space="preserve" text-anchor="middle" x="721.42" y="-38.62" font-family="fixed" font-size="10.00" fill="#b5e4f4">goal_request:PoseStamped</text>
</g>
<!-- WavefrontFrontierExplorer&#45;&gt;chan_goal_request_PoseStamped -->
<g id="edge9" class="edge">
<title>WavefrontFrontierExplorer&#45;&gt;chan_goal_request_PoseStamped</title>
<path fill="none" stroke="#fff59d" d="M615.15,-37.07C626.96,-37.51 639.02,-37.96 650.56,-38.39"/>
</g>
<!-- FoxgloveBridge -->
<g id="node5" class="node">
<title>FoxgloveBridge</title>
<polygon fill="#0b0f0f" stroke="#5c9ff0" points="216.68,-76 116.03,-76 116.03,-40 216.68,-40 216.68,-76"/>
<text xml:space="preserve" text-anchor="middle" x="166.35" y="-55.23" font-family="fixed" font-size="12.00" fill="#b5e4f4">FoxgloveBridge</text>
</g>
<!-- GO2Connection -->
<g id="node6" class="node">
<title>GO2Connection</title>
<polygon fill="#0b0f0f" stroke="#5c9ff0" points="218.55,-184 114.15,-184 114.15,-148 218.55,-148 218.55,-184"/>
<text xml:space="preserve" text-anchor="middle" x="166.35" y="-163.22" font-family="fixed" font-size="12.00" fill="#b5e4f4">GO2Connection</text>
</g>
<!-- chan_lidar_LidarMessage -->
<g id="node12" class="node">
<title>chan_lidar_LidarMessage</title>
<polygon fill="#7986cb" fill-opacity="0.207843" stroke="#7986cb" points="381.25,-176.72 282.68,-176.72 282.68,-155.28 384.82,-155.28 384.82,-173.15 381.25,-176.72"/>
<polyline fill="none" stroke="#7986cb" points="381.25,-176.72 381.25,-173.15"/>
<polyline fill="none" stroke="#7986cb" points="384.82,-173.15 381.25,-173.15"/>
<text xml:space="preserve" text-anchor="middle" x="333.75" y="-163.62" font-family="fixed" font-size="10.00" fill="#b5e4f4">lidar:LidarMessage</text>
</g>
<!-- GO2Connection&#45;&gt;chan_lidar_LidarMessage -->
<g id="edge11" class="edge">
<title>GO2Connection&#45;&gt;chan_lidar_LidarMessage</title>
<path fill="none" stroke="#7986cb" d="M218.78,-166C238.98,-166 262.09,-166 282.21,-166"/>
</g>
<!-- Map -->
<g id="node7" class="node">
<title>Map</title>
<polygon fill="#0b0f0f" stroke="#5c9ff0" points="193.35,-130 139.35,-130 139.35,-94 193.35,-94 193.35,-130"/>
<text xml:space="preserve" text-anchor="middle" x="166.35" y="-109.22" font-family="fixed" font-size="12.00" fill="#b5e4f4">Map</text>
</g>
<!-- chan_global_costmap_OccupancyGrid -->
<g id="node9" class="node">
<title>chan_global_costmap_OccupancyGrid</title>
<polygon fill="#ff8a65" fill-opacity="0.207843" stroke="#ff8a65" points="409.38,-98.72 254.55,-98.72 254.55,-77.28 412.95,-77.28 412.95,-95.15 409.38,-98.72"/>
<polyline fill="none" stroke="#ff8a65" points="409.38,-98.72 409.38,-95.15"/>
<polyline fill="none" stroke="#ff8a65" points="412.95,-95.15 409.38,-95.15"/>
<text xml:space="preserve" text-anchor="middle" x="333.75" y="-85.62" font-family="fixed" font-size="10.00" fill="#b5e4f4">global_costmap:OccupancyGrid</text>
</g>
<!-- Map&#45;&gt;chan_global_costmap_OccupancyGrid -->
<g id="edge3" class="edge">
<title>Map&#45;&gt;chan_global_costmap_OccupancyGrid</title>
<path fill="none" stroke="#ff8a65" d="M193.56,-108.2C210.41,-105.75 233.26,-102.44 255.56,-99.2"/>
</g>
<!-- chan_local_costmap_OccupancyGrid -->
<g id="node13" class="node">
<title>chan_local_costmap_OccupancyGrid</title>
<polygon fill="#f06292" fill-opacity="0.207843" stroke="#f06292" points="405.62,-137.72 258.3,-137.72 258.3,-116.28 409.2,-116.28 409.2,-134.15 405.62,-137.72"/>
<polyline fill="none" stroke="#f06292" points="405.62,-137.72 405.62,-134.15"/>
<polyline fill="none" stroke="#f06292" points="409.2,-134.15 405.62,-134.15"/>
<text xml:space="preserve" text-anchor="middle" x="333.75" y="-124.62" font-family="fixed" font-size="10.00" fill="#b5e4f4">local_costmap:OccupancyGrid</text>
</g>
<!-- Map&#45;&gt;chan_local_costmap_OccupancyGrid -->
<g id="edge13" class="edge">
<title>Map&#45;&gt;chan_local_costmap_OccupancyGrid</title>
<path fill="none" stroke="#f06292" d="M193.56,-114.38C211.05,-115.96 234.99,-118.13 258.09,-120.23"/>
</g>
<!-- chan_cmd_vel_Twist&#45;&gt;GO2Connection -->
<g id="edge2" class="edge">
<title>chan_cmd_vel_Twist&#45;&gt;GO2Connection</title>
<path fill="none" stroke="#4db6ac" d="M78.34,-191C86.15,-188.76 94.55,-186.35 102.95,-183.93"/>
<polygon fill="#4db6ac" stroke="#4db6ac" points="103.83,-187.32 112.48,-181.19 101.9,-180.59 103.83,-187.32"/>
</g>
<!-- chan_global_costmap_OccupancyGrid&#45;&gt;AstarPlanner -->
<g id="edge4" class="edge">
<title>chan_global_costmap_OccupancyGrid&#45;&gt;AstarPlanner</title>
<path fill="none" stroke="#ff8a65" d="M382.4,-99.18C392.51,-101.66 403.1,-104.34 412.95,-107 425.26,-110.32 451.72,-118.15 476.47,-125.56"/>
<polygon fill="#ff8a65" stroke="#ff8a65" points="475.26,-128.85 485.84,-128.38 477.27,-122.15 475.26,-128.85"/>
</g>
<!-- chan_global_costmap_OccupancyGrid&#45;&gt;BehaviorTreeNavigator -->
<g id="edge5" class="edge">
<title>chan_global_costmap_OccupancyGrid&#45;&gt;BehaviorTreeNavigator</title>
<path fill="none" stroke="#ff8a65" d="M413.4,-88C424.75,-88 436.47,-88 447.9,-88"/>
<polygon fill="#ff8a65" stroke="#ff8a65" points="447.7,-91.5 457.7,-88 447.7,-84.5 447.7,-91.5"/>
</g>
<!-- chan_global_costmap_OccupancyGrid&#45;&gt;WavefrontFrontierExplorer -->
<g id="edge6" class="edge">
<title>chan_global_costmap_OccupancyGrid&#45;&gt;WavefrontFrontierExplorer</title>
<path fill="none" stroke="#ff8a65" d="M375.39,-76.81C397.88,-70.62 426.59,-62.72 453.2,-55.39"/>
<polygon fill="#ff8a65" stroke="#ff8a65" points="453.88,-58.83 462.6,-52.8 452.03,-52.08 453.88,-58.83"/>
</g>
<!-- chan_goal_reached_Bool&#45;&gt;WavefrontFrontierExplorer -->
<g id="edge8" class="edge">
<title>chan_goal_reached_Bool&#45;&gt;WavefrontFrontierExplorer</title>
<path fill="none" stroke="#dce775" d="M678.36,-72.78C659.08,-67.64 635.57,-61.37 613.11,-55.39"/>
<polygon fill="#dce775" stroke="#dce775" points="614.22,-52.06 603.66,-52.87 612.42,-58.82 614.22,-52.06"/>
</g>
<!-- chan_goal_request_PoseStamped&#45;&gt;BehaviorTreeNavigator -->
<g id="edge10" class="edge">
<title>chan_goal_request_PoseStamped&#45;&gt;BehaviorTreeNavigator</title>
<path fill="none" stroke="#fff59d" d="M675.91,-52.16C657.86,-56.68 636.41,-62.06 615.68,-67.25"/>
<polygon fill="#fff59d" stroke="#fff59d" points="614.92,-63.84 606.07,-69.66 616.62,-70.63 614.92,-63.84"/>
</g>
<!-- chan_lidar_LidarMessage&#45;&gt;Map -->
<g id="edge12" class="edge">
<title>chan_lidar_LidarMessage&#45;&gt;Map</title>
<path fill="none" stroke="#7986cb" d="M282.39,-154.89C273.07,-152.52 263.46,-149.86 254.55,-147 237.64,-141.58 219.34,-134.44 203.89,-128.02"/>
<polygon fill="#7986cb" stroke="#7986cb" points="205.67,-124.98 195.1,-124.32 202.95,-131.43 205.67,-124.98"/>
</g>
<!-- chan_local_costmap_OccupancyGrid&#45;&gt;HolonomicLocalPlanner -->
<g id="edge14" class="edge">
<title>chan_local_costmap_OccupancyGrid&#45;&gt;HolonomicLocalPlanner</title>
<path fill="none" stroke="#f06292" d="M393.44,-138.18C400.18,-140.36 406.82,-142.94 412.95,-146 427.36,-153.19 426.74,-161.43 440.95,-169 443.62,-170.42 446.38,-171.78 449.2,-173.08"/>
<polygon fill="#f06292" stroke="#f06292" points="447.65,-176.23 458.22,-176.92 450.39,-169.78 447.65,-176.23"/>
</g>
<!-- chan_path_Path&#45;&gt;HolonomicLocalPlanner -->
<g id="edge16" class="edge">
<title>chan_path_Path&#45;&gt;HolonomicLocalPlanner</title>
<path fill="none" stroke="#f06292" d="M691.32,-185.02C671.66,-186.38 644.61,-188.26 618.43,-190.07"/>
<polygon fill="#f06292" stroke="#f06292" points="618.53,-186.56 608.79,-190.74 619.01,-193.54 618.53,-186.56"/>
</g>
<!-- chan_target_PoseStamped&#45;&gt;AstarPlanner -->
<g id="edge18" class="edge">
<title>chan_target_PoseStamped&#45;&gt;AstarPlanner</title>
<path fill="none" stroke="#ff6b6b" d="M666.44,-134.88C641.76,-136.19 612.58,-137.75 587.8,-139.07"/>
<polygon fill="#ff6b6b" stroke="#ff6b6b" points="587.7,-135.57 577.9,-139.6 588.08,-142.56 587.7,-135.57"/>
</g>
</g>
</svg>
